<?xml version="1.0" encoding="utf-8"?>
<!-- Generator: Adobe Illustrator 16.0.0, SVG Export Plug-In . SVG Version: 6.00 Build 0)  -->
<!DOCTYPE svg PUBLIC "-//W3C//DTD SVG 1.1//EN" "http://www.w3.org/Graphics/SVG/1.1/DTD/svg11.dtd">
<svg version="1.1" id="Layer_1" xmlns="http://www.w3.org/2000/svg" xmlns:xlink="http://www.w3.org/1999/xlink" x="0px" y="0px"
	 width="600px" height="600px" viewBox="0 0 600 600" enable-background="new 0 0 600 600" xml:space="preserve">
<circle fill="#FAFBFB" stroke="#FCB64E" stroke-width="35.6248" stroke-miterlimit="10" cx="300.15" cy="299.525" r="281.443"/>
<g>
	<polygon fill="#57A0D7" points="336.55,263.126 336.55,263.126 263.75,190.324 263.75,263.126 336.55,335.923 336.55,335.929 
		409.351,408.729 409.351,335.929 	"/>
	<polygon fill="#57A0D7" points="409.351,263.126 409.351,263.126 336.55,190.324 336.55,263.126 409.351,335.923 409.351,335.929 
		482.146,408.729 482.146,335.929 	"/>
	<polygon fill="#70B2E2" points="336.55,263.126 409.351,335.923 409.351,263.126 	"/>
	<polygon fill="#3D82C4" points="336.55,263.124 409.351,335.923 409.351,263.124 	"/>
	<polygon fill="#5F449B" points="190.948,263.126 190.948,263.124 118.149,190.324 118.149,263.124 190.948,335.923 
		190.948,335.929 263.75,408.729 263.75,335.929 	"/>
	<polygon fill="#5F449B" points="263.75,263.126 190.948,190.324 190.948,263.126 263.75,335.929 336.55,408.729 336.55,335.929 	
		"/>
	<polygon fill="#3A307D" points="190.948,263.126 190.948,190.324 263.75,335.929 	"/>
	<polygon fill="#3A307D" points="263.75,263.126 263.75,190.324 336.55,335.929 	"/>
</g>
</svg>
